<?xml version="1.0" encoding="UTF-8" standalone="no"?><!DOCTYPE svg PUBLIC "-//W3C//DTD SVG 1.1//EN" "http://www.w3.org/Graphics/SVG/1.1/DTD/svg11.dtd"><svg width="100%" height="100%" viewBox="0 0 1875 1875" version="1.1" xmlns="http://www.w3.org/2000/svg" xmlns:xlink="http://www.w3.org/1999/xlink" xml:space="preserve" xmlns:serif="http://www.serif.com/" style="fill-rule:evenodd;clip-rule:evenodd;stroke-linejoin:round;stroke-miterlimit:2;"><path d="M1651.82,1528.47c3.701,-0 5.552,4.114 5.552,12.343c-0,8.229 -1.851,12.343 -5.552,12.343c-38.245,-0 -68.471,-0.686 -90.678,-2.057l-127.69,-2.057l-118.437,2.057c-19.739,1.371 -47.498,2.057 -83.275,2.057c-2.468,-0 -3.702,-4.114 -3.702,-12.343c0,-8.229 1.234,-12.343 3.702,-12.343c41.946,-0 73.097,-3.771 93.454,-11.314c20.356,-7.543 33.927,-20.915 40.712,-40.115c6.786,-19.2 8.945,-49.372 6.477,-90.515l-33.31,-936.008l-421.931,1088.24c-2.468,5.486 -7.403,8.228 -14.805,8.228c-6.169,0 -11.72,-2.742 -16.655,-8.228l-455.242,-1075.89l-16.655,866.064c-1.234,72.687 9.87,124.116 33.31,154.287c23.441,30.172 64.771,45.258 123.989,45.258c2.467,-0 3.701,4.114 3.701,12.343c0,8.229 -1.234,12.343 -3.701,12.343c-34.544,-0 -61.069,-0.686 -79.575,-2.057l-99.931,-2.057l-96.23,2.057c-17.272,1.371 -41.946,2.057 -74.023,2.057c-2.467,-0 -3.701,-4.114 -3.701,-12.343c0,-8.229 1.234,-12.343 3.701,-12.343c51.816,-0 89.136,-15.429 111.96,-46.286c22.824,-30.858 34.853,-81.944 36.086,-153.259l16.655,-954.521c-37.011,-54.858 -87.593,-82.287 -151.747,-82.287c-2.467,0 -3.701,-4.114 -3.701,-12.343c0,-8.228 1.234,-12.343 3.701,-12.343l68.472,2.057c12.337,1.372 29.609,2.058 51.816,2.058c22.207,-0 41.021,-0.686 56.442,-2.058c15.422,-1.371 27.45,-2.057 36.086,-2.057c16.039,0 29.301,6.515 39.788,19.543c10.486,13.029 25.599,42.172 45.339,87.43l412.678,966.864l403.426,-1022.41c13.571,-34.286 32.076,-51.429 55.517,-51.429c6.169,0 15.113,0.686 26.833,2.057c11.721,1.372 27.451,2.058 47.19,2.058l86.977,-2.058c13.571,-1.371 33.927,-2.057 61.069,-2.057c3.701,0 5.552,4.115 5.552,12.343c-0,8.229 -1.851,12.343 -5.552,12.343c-61.686,0 -105.791,9.943 -132.316,29.829c-26.525,19.886 -39.171,57.258 -37.937,112.115l37.012,952.465c1.233,42.515 5.86,73.372 13.879,92.572c8.019,19.2 22.515,32.229 43.489,39.086c20.973,6.857 54.9,10.286 101.781,10.286Z" style="fill:#ff8000;fill-rule:nonzero;"/></svg>